# xmcd CD database file
#
# Track frame offsets:
#	150
#	47647
#	99765
#	141565
#	185460
#	216475
#	260477
#
# Disc length: 3938 seconds
#
# Revision: 0
# Processed by: cddbd v1.5.2PL0 Copyright (c) Steve Scherf et al.
# Submitted via: CDex 1.70beta2
#
DISCID=670f6007
DTITLE=中田 悟 - 鼓動の島, ハワイ
DYEAR=1900
DGENRE=New Age
TTITLE0=マウイ島 ワイルア
TTITLE1=カウアイ島 ハナレイ
TTITLE2=ハワイ島 オピヒカオ
TTITLE3=カウアイ島 ハエナ
TTITLE4=ハワイ島 カラパナ
TTITLE5=ハワイ島 キラウェア ボルケーノ
TTITLE6=ハワイ島 ポホヒキ
EXTD=
EXTT0=
EXTT1=
EXTT2=
EXTT3=
EXTT4=
EXTT5=
EXTT6=
PLAYORDER=
